<?xml version="1.0" encoding="utf-8"?>
<!-- Generator: Adobe Illustrator 16.0.4, SVG Export Plug-In . SVG Version: 6.00 Build 0)  -->
<!DOCTYPE svg PUBLIC "-//W3C//DTD SVG 1.1//EN" "http://www.w3.org/Graphics/SVG/1.1/DTD/svg11.dtd">
<svg version="1.1" xmlns="http://www.w3.org/2000/svg" xmlns:xlink="http://www.w3.org/1999/xlink" x="0px" y="0px" width="253px"
	 height="263.5px" viewBox="0 0 253 263.5" enable-background="new 0 0 253 263.5" xml:space="preserve">
<g id="Layer_2">
</g>
<g id="Layer_1">
	<g>
		<g id="XMLID_1_">
			<g>
				<path fill="#477937" d="M165.64,56.95c27.63-10.53,25.891-20.68,25.521-20.68l-0.69-0.04c-5.989,1.95-61.46,19.93-87.14,26.94
					c-65.58,17.91-55.12,82.75-55.66,84.33c-0.34,1,1.83,68,76.16,72.5c74.34,4.5,80.67-74.75,80.67-74.75l45.33,4.92l0.36,0.05
					C236.37,260.5,132.73,261.73,132.73,261.73l-2.94,0.079C-5.22,259.91,2.5,124.75,2.5,124.75C19-8.5,160.25,8.25,187.75,8.5
					c24.12,0.22,47.5-5.61,52.88-7.05l0.87,0.05c0,0,3,37.5-20.86,71.86c-13.439,19.37-33.779,37.11-61.71,50.56
					c-17.34,8.37-41.05,11.94-64.6,16.25c-12.6,2.3-29.32,4.1-39.7,8.61l-0.09-0.2C50.38,95.79,77.62,84.12,129,68.62
					c18.39-5.55,34.51-10.96,36.61-11.66C165.62,56.95,165.63,56.95,165.64,56.95z"/>
			</g>
			<g>
			</g>
		</g>
	</g>
</g>
</svg>
